<svg width="35" height="35" viewBox="0 0 35 35" fill="none" xmlns="http://www.w3.org/2000/svg">
<g id="CodeSlash">
<path id="Vector" d="M22.9206 3.60277C22.9629 3.46546 22.9776 3.32117 22.9641 3.17815C22.9506 3.03513 22.909 2.89618 22.8418 2.76922C22.7745 2.64226 22.6829 2.5298 22.5722 2.43823C22.4615 2.34667 22.3339 2.27781 22.1966 2.23558C22.0593 2.19336 21.915 2.17859 21.7719 2.19212C21.6289 2.20565 21.49 2.24723 21.363 2.31446C21.2361 2.3817 21.1236 2.47328 21.032 2.58398C20.9405 2.69468 20.8716 2.82233 20.8294 2.95965L12.0794 31.3971C11.9941 31.6745 12.0225 31.9743 12.1583 32.2307C12.294 32.4871 12.5261 32.679 12.8034 32.7643C13.0808 32.8496 13.3806 32.8212 13.637 32.6855C13.8934 32.5497 14.0853 32.3176 14.1706 32.0403L22.9206 3.60277ZM10.6181 9.06933C10.72 9.17093 10.8008 9.29163 10.8559 9.42451C10.9111 9.55739 10.9395 9.69984 10.9395 9.84371C10.9395 9.98757 10.9111 10.13 10.8559 10.2629C10.8008 10.3958 10.72 10.5165 10.6181 10.6181L3.73406 17.5L10.6181 24.3818C10.8235 24.5872 10.9389 24.8658 10.9389 25.1562C10.9389 25.4467 10.8235 25.7252 10.6181 25.9306C10.4128 26.136 10.1342 26.2513 9.84375 26.2513C9.5533 26.2513 9.27475 26.136 9.06938 25.9306L1.41313 18.2743C1.31127 18.1727 1.23046 18.052 1.17532 17.9192C1.12018 17.7863 1.0918 17.6438 1.0918 17.5C1.0918 17.3561 1.12018 17.2136 1.17532 17.0808C1.23046 16.9479 1.31127 16.8272 1.41313 16.7256L9.06938 9.06933C9.17098 8.96748 9.29167 8.88666 9.42455 8.83152C9.55743 8.77639 9.69989 8.748 9.84375 8.748C9.98762 8.748 10.1301 8.77639 10.2629 8.83152C10.3958 8.88666 10.5165 8.96748 10.6181 9.06933ZM24.3819 9.06933C24.28 9.17093 24.1992 9.29163 24.1441 9.42451C24.0889 9.55739 24.0605 9.69984 24.0605 9.84371C24.0605 9.98757 24.0889 10.13 24.1441 10.2629C24.1992 10.3958 24.28 10.5165 24.3819 10.6181L31.2659 17.5L24.3819 24.3818C24.2802 24.4835 24.1995 24.6043 24.1445 24.7371C24.0894 24.87 24.0611 25.0124 24.0611 25.1562C24.0611 25.3 24.0894 25.4424 24.1445 25.5753C24.1995 25.7082 24.2802 25.8289 24.3819 25.9306C24.4836 26.0323 24.6043 26.1129 24.7372 26.168C24.87 26.223 25.0124 26.2513 25.1563 26.2513C25.3001 26.2513 25.4425 26.223 25.5753 26.168C25.7082 26.1129 25.8289 26.0323 25.9306 25.9306L33.5869 18.2743C33.6887 18.1727 33.7695 18.052 33.8247 17.9192C33.8798 17.7863 33.9082 17.6438 33.9082 17.5C33.9082 17.3561 33.8798 17.2136 33.8247 17.0808C33.7695 16.9479 33.6887 16.8272 33.5869 16.7256L25.9306 9.06933C25.829 8.96748 25.7083 8.88666 25.5754 8.83152C25.4426 8.77639 25.3001 8.748 25.1563 8.748C25.0124 8.748 24.8699 8.77639 24.7371 8.83152C24.6042 8.88666 24.4835 8.96748 24.3819 9.06933Z" fill="#2F4858"/>
</g>
</svg>
