<svg width="35" height="35" viewBox="0 0 35 35" fill="none" xmlns="http://www.w3.org/2000/svg">
<g id="FullscreenExit" clip-path="url(#clip0_92_204)">
<path id="Vector" d="M12.0312 0C12.3213 0 12.5995 0.115234 12.8046 0.320352C13.0098 0.52547 13.125 0.803669 13.125 1.09375V9.84375C13.125 10.714 12.7793 11.5486 12.1639 12.1639C11.5486 12.7793 10.714 13.125 9.84375 13.125H1.09375C0.803669 13.125 0.52547 13.0098 0.320352 12.8046C0.115234 12.5995 0 12.3213 0 12.0312C0 11.7412 0.115234 11.463 0.320352 11.2579C0.52547 11.0527 0.803669 10.9375 1.09375 10.9375H9.84375C10.1338 10.9375 10.412 10.8223 10.6171 10.6171C10.8223 10.412 10.9375 10.1338 10.9375 9.84375V1.09375C10.9375 0.803669 11.0527 0.52547 11.2579 0.320352C11.463 0.115234 11.7412 0 12.0312 0ZM22.9688 0C23.2588 0 23.537 0.115234 23.7421 0.320352C23.9473 0.52547 24.0625 0.803669 24.0625 1.09375V9.84375C24.0625 10.1338 24.1777 10.412 24.3829 10.6171C24.588 10.8223 24.8662 10.9375 25.1562 10.9375H33.9062C34.1963 10.9375 34.4745 11.0527 34.6796 11.2579C34.8848 11.463 35 11.7412 35 12.0312C35 12.3213 34.8848 12.5995 34.6796 12.8046C34.4745 13.0098 34.1963 13.125 33.9062 13.125H25.1562C24.286 13.125 23.4514 12.7793 22.8361 12.1639C22.2207 11.5486 21.875 10.714 21.875 9.84375V1.09375C21.875 0.803669 21.9902 0.52547 22.1954 0.320352C22.4005 0.115234 22.6787 0 22.9688 0ZM0 22.9688C0 22.6787 0.115234 22.4005 0.320352 22.1954C0.52547 21.9902 0.803669 21.875 1.09375 21.875H9.84375C10.714 21.875 11.5486 22.2207 12.1639 22.8361C12.7793 23.4514 13.125 24.286 13.125 25.1562V33.9062C13.125 34.1963 13.0098 34.4745 12.8046 34.6796C12.5995 34.8848 12.3213 35 12.0312 35C11.7412 35 11.463 34.8848 11.2579 34.6796C11.0527 34.4745 10.9375 34.1963 10.9375 33.9062V25.1562C10.9375 24.8662 10.8223 24.588 10.6171 24.3829C10.412 24.1777 10.1338 24.0625 9.84375 24.0625H1.09375C0.803669 24.0625 0.52547 23.9473 0.320352 23.7421C0.115234 23.537 0 23.2588 0 22.9688ZM21.875 25.1562C21.875 24.286 22.2207 23.4514 22.8361 22.8361C23.4514 22.2207 24.286 21.875 25.1562 21.875H33.9062C34.1963 21.875 34.4745 21.9902 34.6796 22.1954C34.8848 22.4005 35 22.6787 35 22.9688C35 23.2588 34.8848 23.537 34.6796 23.7421C34.4745 23.9473 34.1963 24.0625 33.9062 24.0625H25.1562C24.8662 24.0625 24.588 24.1777 24.3829 24.3829C24.1777 24.588 24.0625 24.8662 24.0625 25.1562V33.9062C24.0625 34.1963 23.9473 34.4745 23.7421 34.6796C23.537 34.8848 23.2588 35 22.9688 35C22.6787 35 22.4005 34.8848 22.1954 34.6796C21.9902 34.4745 21.875 34.1963 21.875 33.9062V25.1562Z" fill="#2F4858"/>
</g>
<defs>
<clipPath id="clip0_92_204">
<rect width="35" height="35" fill="white"/>
</clipPath>
</defs>
</svg>
