<svg width="35" height="35" viewBox="0 0 35 35" fill="none" xmlns="http://www.w3.org/2000/svg">
<g id="Google" clip-path="url(#clip0_92_151)">
<path id="Vector" d="M34.0047 14.3458C34.2087 15.5204 34.3105 16.7105 34.3088 17.9027C34.3088 23.2271 32.4056 27.7289 29.0938 30.7761H29.0981C26.2019 33.4514 22.2206 35.0002 17.5 35.0002C12.8587 35.0002 8.40752 33.1564 5.12563 29.8745C1.84375 26.5927 0 22.1415 0 17.5002C0 12.8589 1.84375 8.4077 5.12563 5.12581C8.40752 1.84392 12.8587 0.000178189 17.5 0.000178189C21.8442 -0.0506995 26.0397 1.58137 29.2075 4.55455L24.2113 9.5508C22.4052 7.82919 19.9948 6.88641 17.5 6.9258C12.9347 6.9258 9.05625 10.0058 7.67375 14.1533C6.94073 16.3266 6.94073 18.6803 7.67375 20.8536H7.68031C9.06938 24.9946 12.9413 28.0746 17.5066 28.0746C19.8647 28.0746 21.8903 27.4708 23.4609 26.4033H23.4544C24.3664 25.7991 25.1465 25.0164 25.7477 24.1025C26.3488 23.1885 26.7586 22.1622 26.9522 21.0855H17.5V14.348L34.0047 14.3458Z" fill="#2F4858"/>
</g>
<defs>
<clipPath id="clip0_92_151">
<rect width="35" height="35" fill="white"/>
</clipPath>
</defs>
</svg>
