<svg width="35" height="35" viewBox="0 0 35 35" fill="none" xmlns="http://www.w3.org/2000/svg">
<g id="JournalCheck">
<path id="Vector" fill-rule="evenodd" clip-rule="evenodd" d="M23.7431 13.4444C23.845 13.546 23.9258 13.6667 23.9809 13.7996C24.0361 13.9324 24.0645 14.0749 24.0645 14.2188C24.0645 14.3626 24.0361 14.5051 23.9809 14.638C23.9258 14.7708 23.845 14.8915 23.7431 14.9931L17.1806 21.5556C17.079 21.6575 16.9583 21.7383 16.8255 21.7934C16.6926 21.8486 16.5501 21.877 16.4063 21.877C16.2624 21.877 16.1199 21.8486 15.9871 21.7934C15.8542 21.7383 15.7335 21.6575 15.6319 21.5556L12.3506 18.2744C12.2489 18.1727 12.1683 18.052 12.1132 17.9191C12.0582 17.7862 12.0299 17.6438 12.0299 17.5C12.0299 17.3562 12.0582 17.2138 12.1132 17.0809C12.1683 16.948 12.2489 16.8273 12.3506 16.7256C12.4523 16.6239 12.5731 16.5433 12.7059 16.4882C12.8388 16.4332 12.9812 16.4049 13.125 16.4049C13.2688 16.4049 13.4112 16.4332 13.5441 16.4882C13.677 16.5433 13.7977 16.6239 13.8994 16.7256L16.4063 19.2347L22.1944 13.4444C22.296 13.3425 22.4167 13.2617 22.5496 13.2066C22.6824 13.1514 22.8249 13.123 22.9688 13.123C23.1126 13.123 23.2551 13.1514 23.388 13.2066C23.5208 13.2617 23.6415 13.3425 23.7431 13.4444Z" fill="#2F4858"/>
<path id="Vector_2" d="M6.5625 0H28.4375C29.5978 0 30.7106 0.460936 31.5311 1.28141C32.3516 2.10188 32.8125 3.21468 32.8125 4.375V30.625C32.8125 31.7853 32.3516 32.8981 31.5311 33.7186C30.7106 34.5391 29.5978 35 28.4375 35H6.5625C5.40218 35 4.28938 34.5391 3.46891 33.7186C2.64844 32.8981 2.1875 31.7853 2.1875 30.625V28.4375H4.375V30.625C4.375 31.2052 4.60547 31.7616 5.0157 32.1718C5.42594 32.582 5.98234 32.8125 6.5625 32.8125H28.4375C29.0177 32.8125 29.5741 32.582 29.9843 32.1718C30.3945 31.7616 30.625 31.2052 30.625 30.625V4.375C30.625 3.79484 30.3945 3.23844 29.9843 2.8282C29.5741 2.41797 29.0177 2.1875 28.4375 2.1875H6.5625C5.98234 2.1875 5.42594 2.41797 5.0157 2.8282C4.60547 3.23844 4.375 3.79484 4.375 4.375V6.5625H2.1875V4.375C2.1875 3.21468 2.64844 2.10188 3.46891 1.28141C4.28938 0.460936 5.40218 0 6.5625 0Z" fill="#2F4858"/>
<path id="Vector_3" d="M2.1875 10.9375V9.84375C2.1875 9.55367 2.30273 9.27547 2.50785 9.07035C2.71297 8.86523 2.99117 8.75 3.28125 8.75C3.57133 8.75 3.84953 8.86523 4.05465 9.07035C4.25977 9.27547 4.375 9.55367 4.375 9.84375V10.9375H5.46875C5.75883 10.9375 6.03703 11.0527 6.24215 11.2579C6.44727 11.463 6.5625 11.7412 6.5625 12.0312C6.5625 12.3213 6.44727 12.5995 6.24215 12.8046C6.03703 13.0098 5.75883 13.125 5.46875 13.125H1.09375C0.803669 13.125 0.52547 13.0098 0.320352 12.8046C0.115234 12.5995 0 12.3213 0 12.0312C0 11.7412 0.115234 11.463 0.320352 11.2579C0.52547 11.0527 0.803669 10.9375 1.09375 10.9375H2.1875ZM2.1875 17.5V16.4062C2.1875 16.1162 2.30273 15.838 2.50785 15.6329C2.71297 15.4277 2.99117 15.3125 3.28125 15.3125C3.57133 15.3125 3.84953 15.4277 4.05465 15.6329C4.25977 15.838 4.375 16.1162 4.375 16.4062V17.5H5.46875C5.75883 17.5 6.03703 17.6152 6.24215 17.8204C6.44727 18.0255 6.5625 18.3037 6.5625 18.5938C6.5625 18.8838 6.44727 19.162 6.24215 19.3671C6.03703 19.5723 5.75883 19.6875 5.46875 19.6875H1.09375C0.803669 19.6875 0.52547 19.5723 0.320352 19.3671C0.115234 19.162 0 18.8838 0 18.5938C0 18.3037 0.115234 18.0255 0.320352 17.8204C0.52547 17.6152 0.803669 17.5 1.09375 17.5H2.1875ZM2.1875 24.0625V22.9688C2.1875 22.6787 2.30273 22.4005 2.50785 22.1954C2.71297 21.9902 2.99117 21.875 3.28125 21.875C3.57133 21.875 3.84953 21.9902 4.05465 22.1954C4.25977 22.4005 4.375 22.6787 4.375 22.9688V24.0625H5.46875C5.75883 24.0625 6.03703 24.1777 6.24215 24.3829C6.44727 24.588 6.5625 24.8662 6.5625 25.1562C6.5625 25.4463 6.44727 25.7245 6.24215 25.9296C6.03703 26.1348 5.75883 26.25 5.46875 26.25H1.09375C0.803669 26.25 0.52547 26.1348 0.320352 25.9296C0.115234 25.7245 0 25.4463 0 25.1562C0 24.8662 0.115234 24.588 0.320352 24.3829C0.52547 24.1777 0.803669 24.0625 1.09375 24.0625H2.1875Z" fill="#2F4858"/>
</g>
</svg>
