<svg width="35" height="35" viewBox="0 0 35 35" fill="none" xmlns="http://www.w3.org/2000/svg">
<g id="LayoutTextSidebarReverse" clip-path="url(#clip0_92_210)">
<path id="Vector" d="M27.3438 6.5625C27.6338 6.5625 27.912 6.67773 28.1171 6.88285C28.3223 7.08797 28.4375 7.36617 28.4375 7.65625C28.4375 7.94633 28.3223 8.22453 28.1171 8.42965C27.912 8.63477 27.6338 8.75 27.3438 8.75H16.4062C16.1162 8.75 15.838 8.63477 15.6329 8.42965C15.4277 8.22453 15.3125 7.94633 15.3125 7.65625C15.3125 7.36617 15.4277 7.08797 15.6329 6.88285C15.838 6.67773 16.1162 6.5625 16.4062 6.5625H27.3438ZM27.3438 13.125C27.6338 13.125 27.912 13.2402 28.1171 13.4454C28.3223 13.6505 28.4375 13.9287 28.4375 14.2188C28.4375 14.5088 28.3223 14.787 28.1171 14.9921C27.912 15.1973 27.6338 15.3125 27.3438 15.3125H16.4062C16.1162 15.3125 15.838 15.1973 15.6329 14.9921C15.4277 14.787 15.3125 14.5088 15.3125 14.2188C15.3125 13.9287 15.4277 13.6505 15.6329 13.4454C15.838 13.2402 16.1162 13.125 16.4062 13.125H27.3438ZM28.4375 20.7812C28.4375 20.4912 28.3223 20.213 28.1171 20.0079C27.912 19.8027 27.6338 19.6875 27.3438 19.6875H16.4062C16.1162 19.6875 15.838 19.8027 15.6329 20.0079C15.4277 20.213 15.3125 20.4912 15.3125 20.7812C15.3125 21.0713 15.4277 21.3495 15.6329 21.5546C15.838 21.7598 16.1162 21.875 16.4062 21.875H27.3438C27.6338 21.875 27.912 21.7598 28.1171 21.5546C28.3223 21.3495 28.4375 21.0713 28.4375 20.7812ZM27.3438 26.25C27.6338 26.25 27.912 26.3652 28.1171 26.5704C28.3223 26.7755 28.4375 27.0537 28.4375 27.3438C28.4375 27.6338 28.3223 27.912 28.1171 28.1171C27.912 28.3223 27.6338 28.4375 27.3438 28.4375H16.4062C16.1162 28.4375 15.838 28.3223 15.6329 28.1171C15.4277 27.912 15.3125 27.6338 15.3125 27.3438C15.3125 27.0537 15.4277 26.7755 15.6329 26.5704C15.838 26.3652 16.1162 26.25 16.4062 26.25H27.3438Z" fill="#2F4858"/>
<path id="Vector_2" d="M35 4.375C35 3.21468 34.5391 2.10188 33.7186 1.28141C32.8981 0.460936 31.7853 0 30.625 0L4.375 0C3.21468 0 2.10188 0.460936 1.28141 1.28141C0.460936 2.10188 0 3.21468 0 4.375L0 30.625C0 31.7853 0.460936 32.8981 1.28141 33.7186C2.10188 34.5391 3.21468 35 4.375 35H30.625C31.7853 35 32.8981 34.5391 33.7186 33.7186C34.5391 32.8981 35 31.7853 35 30.625V4.375ZM8.75 2.1875V32.8125H4.375C3.79484 32.8125 3.23844 32.582 2.8282 32.1718C2.41797 31.7616 2.1875 31.2052 2.1875 30.625V4.375C2.1875 3.79484 2.41797 3.23844 2.8282 2.8282C3.23844 2.41797 3.79484 2.1875 4.375 2.1875H8.75ZM10.9375 2.1875H30.625C31.2052 2.1875 31.7616 2.41797 32.1718 2.8282C32.582 3.23844 32.8125 3.79484 32.8125 4.375V30.625C32.8125 31.2052 32.582 31.7616 32.1718 32.1718C31.7616 32.582 31.2052 32.8125 30.625 32.8125H10.9375V2.1875Z" fill="#2F4858"/>
</g>
<defs>
<clipPath id="clip0_92_210">
<rect width="35" height="35" fill="white"/>
</clipPath>
</defs>
</svg>
